<svg xmlns="http://www.w3.org/2000/svg" viewBox="0 0 512 512">
    <defs>
        <radialGradient id="neonGlow" cx="50%" cy="50%" r="50%" fx="50%" fy="50%">
            <stop offset="0%" stop-color="#39ff14" stop-opacity="0.6" />
            <stop offset="100%" stop-color="#39ff14" stop-opacity="0" />
        </radialGradient>
    </defs>
    <rect width="512" height="512" fill="#050505" rx="100" ry="100" />
    <circle cx="256" cy="256" r="220" fill="url(#neonGlow)" />
    
    <!-- Knife -->
    <path d="M 300 110 C 330 110, 330 200, 310 260 L 310 400 A 10 10 0 0 1 290 400 L 290 110 Z" fill="#ffffff" />
    <!-- Fork -->
    <path d="M 200 110 L 200 240 C 200 270, 240 270, 240 240 L 240 110 A 5 5 0 0 1 210 110 L 210 200 L 220 200 L 220 110 A 5 5 0 0 1 230 110 L 230 200 L 240 200 L 240 240 C 240 280, 220 280, 220 300 L 220 400 A 10 10 0 0 1 200 400 L 200 300 C 200 280, 180 280, 180 240 L 180 110 Z" fill="#ffffff" />
</svg>
